<?xml version="1.0" encoding="UTF-8" standalone="no"?>
<svg width="100px" height="33px" xmlns="http://www.w3.org/2000/svg" viewBox="106.48623046875 75.8800048828125 287.0275390625 0.1" preserveAspectRatio="xMidYMid"><defs><filter id="editing-hole" x="-100%" y="-100%" width="300%" height="300%"><feFlood flood-color="rgba(0%,0%,0%)" result="white"></feFlood><feMorphology operator="dilate" radius="2" in="SourceGraphic" result="erode"></feMorphology></filter></defs><g filter="url(#editing-hole)"><g transform="translate(150.0000011920929, 100.6299991607666)"><path d="M28.86-50.62L28.86-50.62Q33.47-50.62 37.25-49.28L37.25-49.28L37.25-49.28Q41.02-47.94 44.54-44.99L44.54-44.99L44.54-44.99Q45.25-44.48 45.25-43.52L45.25-43.52L45.25-43.52Q45.25-43.01 44.99-42.59L44.99-42.59L44.99-42.59Q44.74-42.18 44.29-41.98L44.29-41.98L44.29-41.98Q44.16-41.54 43.71-41.28L43.71-41.28L43.71-41.28Q43.26-41.02 42.75-41.02L42.75-41.02L42.75-41.02Q41.79-41.02 41.15-41.60L41.15-41.60L41.15-41.60Q38.66-43.84 35.71-44.86L35.71-44.86L35.71-44.86Q32.77-45.89 28.86-45.89L28.86-45.89L28.86-45.89Q23.49-45.89 18.88-43.04L18.88-43.04L18.88-43.04Q14.27-40.19 11.55-35.39L11.55-35.39L11.55-35.39Q8.83-30.59 8.83-25.02L8.83-25.02L8.83-25.02Q8.83-19.33 11.52-14.53L11.52-14.53L11.52-14.53Q14.21-9.73 18.82-6.91L18.82-6.91L18.82-6.91Q23.42-4.10 28.86-4.10L28.86-4.10L28.86-4.10Q35.84-4.10 41.47-8.58L41.47-8.58L41.47-8.58Q42.18-9.09 42.88-9.09L42.88-9.09L42.88-9.09Q43.84-9.09 44.54-8.42L44.54-8.42L44.54-8.42Q45.25-7.74 45.25-6.66L45.25-6.66L45.25-6.66Q45.25-5.63 44.54-4.86L44.54-4.86L44.54-4.86Q38.53 0.64 28.86 0.64L28.86 0.64L28.86 0.64Q22.08 0.64 16.38-2.82L16.38-2.82L16.38-2.82Q10.69-6.27 7.33-12.16L7.33-12.16L7.33-12.16Q3.97-18.05 3.97-25.02L3.97-25.02L3.97-25.02Q3.97-31.94 7.30-37.82L7.30-37.82L7.30-37.82Q10.62-43.71 16.32-47.17L16.32-47.17L16.32-47.17Q22.02-50.62 28.86-50.62L28.86-50.62ZM55.74-47.49L55.74-47.49Q55.74-48.58 56.48-49.28L56.48-49.28L56.48-49.28Q57.22-49.98 58.24-49.98L58.24-49.98L58.24-49.98Q59.33-49.98 60.03-49.28L60.03-49.28L60.03-49.28Q60.74-48.58 60.74-47.49L60.74-47.49L60.74-2.50L60.74-2.50Q60.74-1.47 60.03-0.74L60.03-0.74L60.03-0.74Q59.33 0 58.24 0L58.24 0L58.24 0Q57.22 0 56.48-0.74L56.48-0.74L56.48-0.74Q55.74-1.47 55.74-2.50L55.74-2.50L55.74-47.49ZM105.79-49.98L105.79-49.98Q106.82-49.98 107.46-49.34L107.46-49.34L107.46-49.34Q108.10-48.70 108.10-47.68L108.10-47.68L108.10-47.68Q108.10-46.72 107.46-46.08L107.46-46.08L107.46-46.08Q106.82-45.44 105.79-45.44L105.79-45.44L90.56-45.44L90.56-2.50L90.56-2.50Q90.56-1.47 89.86-0.74L89.86-0.74L89.86-0.74Q89.15 0 88.06 0L88.06 0L88.06 0Q87.04 0 86.30-0.74L86.30-0.74L86.30-0.74Q85.57-1.47 85.57-2.50L85.57-2.50L85.57-45.44L70.40-45.44L70.40-45.44Q69.38-45.44 68.74-46.08L68.74-46.08L68.74-46.08Q68.10-46.72 68.10-47.68L68.10-47.68L68.10-47.68Q68.10-48.70 68.74-49.34L68.74-49.34L68.74-49.34Q69.38-49.98 70.40-49.98L70.40-49.98L105.79-49.98ZM151.42-49.98L151.42-49.98Q152.45-49.98 153.06-49.34L153.06-49.34L153.06-49.34Q153.66-48.70 153.66-47.74L153.66-47.74L153.66-47.74Q153.66-47.10 153.34-46.34L153.34-46.34L134.27-1.60L134.27-1.60Q133.57 0 132.03 0L132.03 0L132.03 0Q131.20 0 130.66-0.35L130.66-0.35L130.66-0.35Q130.11-0.70 129.73-1.60L129.73-1.60L110.72-46.08L110.72-46.08Q110.34-47.04 110.34-47.74L110.34-47.74L110.34-47.74Q110.34-48.77 111.01-49.38L111.01-49.38L111.01-49.38Q111.68-49.98 112.77-49.98L112.77-49.98L112.77-49.98Q114.43-49.98 115.07-48.38L115.07-48.38L132.03-7.81L148.93-48.26L148.93-48.26Q149.31-49.22 149.89-49.60L149.89-49.60L149.89-49.60Q150.46-49.98 151.42-49.98L151.42-49.98ZM193.86-49.98L193.86-49.98Q194.82-49.98 195.42-49.31L195.42-49.31L195.42-49.31Q196.03-48.64 196.03-47.68L196.03-47.68L196.03-47.68Q196.03-46.78 195.58-46.08L195.58-46.08L178.11-18.50L178.11-2.50L178.11-2.50Q178.11-1.47 177.41-0.74L177.41-0.74L177.41-0.74Q176.70 0 175.62 0L175.62 0L175.62 0Q174.59 0 173.86-0.74L173.86-0.74L173.86-0.74Q173.12-1.47 173.12-2.50L173.12-2.50L173.12-18.50L155.71-46.08L155.71-46.08Q155.20-46.91 155.20-47.68L155.20-47.68L155.20-47.68Q155.20-48.64 155.90-49.31L155.90-49.31L155.90-49.31Q156.61-49.98 157.63-49.98L157.63-49.98L157.63-49.98Q158.34-49.98 158.82-49.70L158.82-49.70L158.82-49.70Q159.30-49.41 159.74-48.77L159.74-48.77L175.68-23.10L191.55-48.64L191.55-48.64Q192.06-49.34 192.58-49.66L192.58-49.66L192.58-49.66Q193.09-49.98 193.86-49.98L193.86-49.98Z" fill="#ffffff"></path></g></g></svg>